<?xml version="1.0" encoding="utf-8"?>
<!-- Generator: Adobe Illustrator 27.7.0, SVG Export Plug-In . SVG Version: 6.00 Build 0)  -->
<svg version="1.1" id="圖層_1" xmlns="http://www.w3.org/2000/svg" xmlns:xlink="http://www.w3.org/1999/xlink" x="0px" y="0px"
	 viewBox="0 0 13.4 16.2" style="enable-background:new 0 0 13.4 16.2;" xml:space="preserve">
<style type="text/css">
	.st0{fill:#FFFFFF;}
</style>
<path class="st0" d="M6.6,5.3c0,0-0.1,0-0.1,0.1L4.5,7.3c-0.2,0.2-0.2,0.4,0,0.5c0.2,0.2,0.4,0.2,0.5,0l1.3-1.3v4
	c0,0.2,0.2,0.4,0.4,0.4c0.2,0,0.4-0.2,0.4-0.4v-4l1.3,1.3c0.2,0.2,0.4,0.2,0.5,0l0,0c0.2-0.2,0.2-0.4,0-0.5l0,0L7,5.3
	c0,0-0.1-0.1-0.1-0.1C6.8,5.2,6.6,5.2,6.6,5.3z"/>
</svg>
