<?xml version="1.0" encoding="UTF-8"?><svg id="svg2" xmlns="http://www.w3.org/2000/svg" viewBox="0 0 32 32"><g id="layer1"><g id="path11734"><rect x="23" y="17.75" width="1" height="9" style="fill:#fff;"/></g><g id="path11736"><rect x="25.5" y="17.75" width="1" height="9" style="fill:#fff;"/></g><g id="path11738"><path d="m27.5,28.5h-1v-.75c0-.28-.22-.5-.5-.5h-2.5c-.28,0-.5.22-.5.5v.75h-1v-.75c0-.83.67-1.5,1.5-1.5h2.5c.83,0,1.5.67,1.5,1.5v.75Z" style="fill:#fff;"/></g><g id="path11740"><path d="m26,18.25h-2.5c-.83,0-1.5-.67-1.5-1.5v-.75h1v.75c0,.28.22.5.5.5h2.5c.28,0,.5-.22.5-.5v-.75h1v.75c0,.83-.67,1.5-1.5,1.5Z" style="fill:#fff;"/></g><g id="path11744"><rect x="13.75" y="17.75" width="1" height="9" style="fill:#fff;"/></g><g id="path11746"><rect x="16.25" y="17.75" width="1" height="9" style="fill:#fff;"/></g><g id="path11748"><path d="m18.25,28.5h-1v-.75c0-.28-.22-.5-.5-.5h-2.5c-.28,0-.5.22-.5.5v.75h-1v-.75c0-.83.67-1.5,1.5-1.5h2.5c.83,0,1.5.67,1.5,1.5v.75Z" style="fill:#fff;"/></g><g id="path11750"><path d="m16.75,18.25h-2.5c-.83,0-1.5-.67-1.5-1.5v-.75h1v.75c0,.28.22.5.5.5h2.5c.28,0,.5-.22.5-.5v-.75h1v.75c0,.83-.67,1.5-1.5,1.5Z" style="fill:#fff;"/></g><g id="path11754"><path d="m30.49,32H.51c-.28,0-.5-.22-.5-.5s.22-.5.5-.5h29.99c.28,0,.5.22.5.5s-.22.5-.5.5Z" style="fill:#fff;"/></g><g id="path11756"><path d="m16,7.5h-1V1c0-.28.22-.5.5-.5h5.5c.28,0,.5.22.5.5v3c0,.28-.22.5-.5.5h-4.25v-1h3.75V1.5h-4.5v6Z" style="fill:#fff;"/></g><g id="path11758"><path d="m29,30H2c-.28,0-.5-.22-.5-.5s.22-.5.5-.5h27c.28,0,.5.22.5.5s-.22.5-.5.5Z" style="fill:#fff;"/></g><g id="path11760"><rect x="4.5" y="17.75" width="1" height="9" style="fill:#fff;"/></g><g id="path11762"><rect x="7" y="17.75" width="1" height="9" style="fill:#fff;"/></g><g id="path11764"><path d="m9,28.5h-1v-.75c0-.28-.22-.5-.5-.5h-2.5c-.28,0-.5.22-.5.5v.75h-1v-.75c0-.83.67-1.5,1.5-1.5h2.5c.83,0,1.5.67,1.5,1.5v.75Z" style="fill:#fff;"/></g><g id="path11766"><path d="m7.5,18.25h-2.5c-.83,0-1.5-.67-1.5-1.5v-.75h1v.75c0,.28.22.5.5.5h2.5c.28,0,.5-.22.5-.5v-.75h1v.75c0,.83-.67,1.5-1.5,1.5Z" style="fill:#fff;"/></g><g id="path11770"><path d="m29.5,15.5H1.5c-.28,0-.5-.22-.5-.5v-1.5c0-.19.11-.37.29-.45l14-6.5c.13-.06.29-.06.42,0l14,6.5c.18.08.29.26.29.45v1.5c0,.28-.22.5-.5.5Zm-27.5-1h27v-.68l-13.5-6.27L2,13.82v.68Z" style="fill:#fff;"/></g><g id="circle11772"><path d="m15.5,13.5c-1.1,0-2-.9-2-2s.9-2,2-2,2,.9,2,2-.9,2-2,2Zm0-3c-.55,0-1,.45-1,1s.45,1,1,1,1-.45,1-1-.45-1-1-1Z" style="fill:#fff;"/></g></g></svg>