<?xml version="1.0" encoding="UTF-8"?><svg id="svg2" xmlns="http://www.w3.org/2000/svg" viewBox="0 0 32 32"><g id="layer1"><g id="path11603"><path d="m16.5,30h-1c0-1.38-1.12-2.5-2.5-2.5H4.5c-.28,0-.5-.22-.5-.5v-13.5c0-.28.22-.5.5-.5h8.5c1.93,0,3.5,1.57,3.5,3.5h-1c0-1.38-1.12-2.5-2.5-2.5H5v12.5h8c1.93,0,3.5,1.57,3.5,3.5Z" style="fill:#fff;"/></g><g id="path11605"><path d="m16.5,30h-1c0-1.93,1.57-3.5,3.5-3.5h8v-12.5h-8c-1.38,0-2.5,1.12-2.5,2.5h-1c0-1.93,1.57-3.5,3.5-3.5h8.5c.28,0,.5.22.5.5v13.5c0,.28-.22.5-.5.5h-8.5c-1.38,0-2.5,1.12-2.5,2.5Z" style="fill:#fff;"/></g><g id="path11607"><rect x="15.5" y="16" width="1" height="13" style="fill:#fff;"/></g><g id="path11609"><path d="m17,32h-2c-.28,0-.5-.22-.5-.5,0-1.31-1.26-2-2.5-2H2.5c-.28,0-.5-.22-.5-.5v-12.99c0-.28.22-.5.5-.5s.5.22.5.5v12.49h9c1.8,0,3.19,1.04,3.46,2.5h1.09c.26-1.46,1.66-2.5,3.46-2.5h9v-12.49c0-.28.22-.5.5-.5s.5.22.5.5v12.99c0,.28-.22.5-.5.5h-9.5c-1.24,0-2.5.69-2.5,2,0,.28-.22.5-.5.5Z" style="fill:#fff;"/></g><g id="path11613"><path d="m16,10.99c-.28,0-.5-.22-.5-.5V1.51c0-.28.22-.5.5-.5s.5.22.5.5v8.99c0,.28-.22.5-.5.5Z" style="fill:#fff;"/></g><g id="path11615"><rect x="10" y="2" width="12" height="1" style="fill:#fff;"/></g><g id="path11617"><path d="m18.49,11h-4.99c-.28,0-.5-.22-.5-.5s.22-.5.5-.5h4.99c.28,0,.5.22.5.5s-.22.5-.5.5Z" style="fill:#fff;"/></g><g id="g11625"><g id="g11623"><g id="path11619"><path d="m10.01,9.99c-1.37,0-2.5-1.11-2.51-2.48,0-.06.01-.13.04-.19l2-5.01c.08-.19.26-.31.46-.31h0c.2,0,.39.12.46.31l2,4.99c.02.06.04.12.04.19,0,1.37-1.12,2.49-2.49,2.5Zm-1.51-2.4c.05.78.71,1.4,1.5,1.4.79,0,1.44-.63,1.49-1.41l-1.5-3.74-1.5,3.75Z" style="fill:#fff;"/></g><g id="path11621"><rect x="8.1" y="6.99" width="3.81" height="1" style="fill:#fff;"/></g></g></g><g id="g11633"><g id="g11631"><g id="path11627"><path d="m22.01,9.99c-1.37,0-2.5-1.11-2.51-2.48,0-.06.01-.13.04-.19l2-5.01c.08-.19.26-.31.46-.31h0c.2,0,.39.12.46.31l2,4.99c.02.06.04.12.04.19,0,1.37-1.12,2.49-2.49,2.5Zm-1.51-2.4c.05.78.71,1.4,1.5,1.4.79,0,1.44-.63,1.49-1.41l-1.5-3.74-1.5,3.75Z" style="fill:#fff;"/></g><g id="path11629"><rect x="20.1" y="6.99" width="3.8" height="1" style="fill:#fff;"/></g></g></g></g></svg>