<?xml version="1.0" encoding="UTF-8"?><svg id="icon" xmlns="http://www.w3.org/2000/svg" viewBox="0 0 35.5 35.5"><path d="m23.75,5.5h-11c-.41,0-.75-.34-.75-.75s.34-.75.75-.75h11c.41,0,.75.34.75.75s-.34.75-.75.75Z" style="fill:#fff;"/><path d="m34.75,35.5H.75c-.41,0-.75-.34-.75-.75V4.75c0-.41.34-.75.75-.75h2c.41,0,.75.34.75.75s-.34.75-.75.75h-1.25v28.5h32.5V5.5h-1.25c-.41,0-.75-.34-.75-.75s.34-.75.75-.75h2c.41,0,.75.34.75.75v30c0,.41-.34.75-.75.75Z" style="fill:#fff;"/><path d="m8.75,8.5h-3c-.41,0-.75-.34-.75-.75V.75c0-.41.34-.75.75-.75h3c.41,0,.75.34.75.75v7c0,.41-.34.75-.75.75Zm-2.25-1.5h1.5V1.5h-1.5v5.5Z" style="fill:#fff;"/><path d="m29.75,8.5h-3c-.41,0-.75-.34-.75-.75V.75c0-.41.34-.75.75-.75h3c.41,0,.75.34.75.75v7c0,.41-.34.75-.75.75Zm-2.25-1.5h1.5V1.5h-1.5v5.5Z" style="fill:#fff;"/><path d="m34.75,13.5H.75c-.41,0-.75-.34-.75-.75s.34-.75.75-.75h34c.41,0,.75.34.75.75s-.34.75-.75.75Z" style="fill:#fff;"/><path d="m10.75,22.5h-5c-.41,0-.75-.34-.75-.75v-4c0-.41.34-.75.75-.75h5c.41,0,.75.34.75.75v4c0,.41-.34.75-.75.75Zm-4.25-1.5h3.5v-2.5h-3.5v2.5Z" style="fill:#fff;"/><path d="m20.75,22.5h-5c-.41,0-.75-.34-.75-.75v-4c0-.41.34-.75.75-.75h5c.41,0,.75.34.75.75v4c0,.41-.34.75-.75.75Zm-4.25-1.5h3.5v-2.5h-3.5v2.5Z" style="fill:#fff;"/><path d="m29.75,22.5h-5c-.41,0-.75-.34-.75-.75v-4c0-.41.34-.75.75-.75h5c.41,0,.75.34.75.75v4c0,.41-.34.75-.75.75Zm-4.25-1.5h3.5v-2.5h-3.5v2.5Z" style="fill:#fff;"/><path d="m10.75,30.5h-5c-.41,0-.75-.34-.75-.75v-4c0-.41.34-.75.75-.75h5c.41,0,.75.34.75.75v4c0,.41-.34.75-.75.75Zm-4.25-1.5h3.5v-2.5h-3.5v2.5Z" style="fill:#fff;"/><path d="m20.75,30.5h-5c-.41,0-.75-.34-.75-.75v-4c0-.41.34-.75.75-.75h5c.41,0,.75.34.75.75v4c0,.41-.34.75-.75.75Zm-4.25-1.5h3.5v-2.5h-3.5v2.5Z" style="fill:#fff;"/><path d="m29.75,30.5h-5c-.41,0-.75-.34-.75-.75v-4c0-.41.34-.75.75-.75h5c.41,0,.75.34.75.75v4c0,.41-.34.75-.75.75Zm-4.25-1.5h3.5v-2.5h-3.5v2.5Z" style="fill:#fff;"/></svg>