<?xml version="1.0" encoding="UTF-8"?><svg id="svg2" xmlns="http://www.w3.org/2000/svg" viewBox="0 0 32 32"><g id="layer1"><g id="path11011"><path d="m5,29c-.13,0-.26-.05-.35-.15-.09-.09-.15-.22-.15-.35V2c0-.28.22-.5.5-.5h16c.13,0,.26.05.35.15l4,4c.09.09.15.22.15.35v22.5c0,.28-.23.5-.5.5H5Zm.5-26.5v25.5h18.99s0-21.79,0-21.79l-3.71-3.71H5.5Z" style="fill:#fff;"/></g><g id="path11013"><path d="m27,31H7.01c-.28,0-.5-.22-.5-.5s.22-.5.5-.5h19.49V4.01c0-.28.22-.5.5-.5s.5.22.5.5v26.49c0,.28-.22.5-.5.5Z" style="fill:#fff;"/></g><g id="path11015"><path d="m25,6.5h-4c-.28,0-.5-.22-.5-.5V2h1v3.5h3.5v1Z" style="fill:#fff;"/></g><g id="path11017"><path d="m15,18.99c-.28,0-.5-.22-.5-.5v-8.99c0-.28.22-.5.5-.5s.5.22.5.5v8.99c0,.28-.22.5-.5.5Z" style="fill:#fff;"/></g><g id="path11019"><rect x="9.5" y="10" width="11" height="1" style="fill:#fff;"/></g><g id="path11021"><path d="m17.49,19h-4.99c-.28,0-.5-.22-.5-.5s.22-.5.5-.5h4.99c.28,0,.5.22.5.5s-.22.5-.5.5Z" style="fill:#fff;"/></g><g id="path11023"><path d="m9.51,17.5c-1.37,0-2.5-1.11-2.51-2.48,0-.07.01-.14.04-.21l2-4.51c.08-.18.26-.3.46-.3h0c.2,0,.38.12.46.3l2,4.5c.03.06.04.13.04.2,0,1.37-1.12,2.5-2.49,2.5Zm-1.51-2.39c.06.77.71,1.39,1.5,1.39.79,0,1.44-.62,1.49-1.4l-1.5-3.36-1.5,3.38Z" style="fill:#fff;"/></g><g id="path11025"><rect x="7.6" y="14.5" width="3.81" height="1" style="fill:#fff;"/></g><g id="path11029"><path d="m20.51,17.5c-1.37,0-2.5-1.11-2.51-2.48,0-.07.01-.14.04-.21l2-4.51c.08-.18.26-.3.46-.3h0c.2,0,.38.12.46.3l2,4.5c.03.06.04.13.04.2,0,1.37-1.12,2.5-2.49,2.5Zm-1.51-2.39c.06.77.71,1.39,1.5,1.39.79,0,1.44-.62,1.49-1.4l-1.5-3.36-1.5,3.38Z" style="fill:#fff;"/></g><g id="path11031"><rect x="18.6" y="14.5" width="3.81" height="1" style="fill:#fff;"/></g><g id="path11035"><path d="m9.49,5.5h-1.49c-.28,0-.5-.22-.5-.5s.22-.5.5-.5h1.49c.28,0,.5.22.5.5s-.22.5-.5.5Z" style="fill:#fff;"/></g><g id="path11037"><path d="m8.01,7.5c-.28,0-.5-.22-.5-.5s.22-.5.5-.5h4.24c.28,0,.5.22.5.5s-.22.5-.5.5h-4.24Z" style="fill:#fff;"/></g><g id="path11039"><path d="m20.99,22h-6.74c-.28,0-.5-.22-.5-.5s.22-.5.5-.5h6.74c.28,0,.5.22.5.5s-.22.5-.5.5Z" style="fill:#fff;"/></g><g id="path11041"><path d="m18.99,26h-7.99c-.28,0-.5-.22-.5-.5s.22-.5.5-.5h7.99c.28,0,.5.22.5.5s-.22.5-.5.5Z" style="fill:#fff;"/></g><g id="path11043"><path d="m12.49,22h-3.49c-.28,0-.5-.22-.5-.5s.22-.5.5-.5h3.49c.28,0,.5.22.5.5s-.22.5-.5.5Z" style="fill:#fff;"/></g><g id="path11045"><path d="m20.99,24h-1.49c-.28,0-.5-.22-.5-.5s.22-.5.5-.5h1.49c.28,0,.5.22.5.5s-.22.5-.5.5Z" style="fill:#fff;"/></g><g id="path11047"><path d="m13.24,24h-4.24c-.28,0-.5-.22-.5-.5s.22-.5.5-.5h4.24c.28,0,.5.22.5.5s-.22.5-.5.5Z" style="fill:#fff;"/></g><g id="path11049"><path d="m17.74,24h-2.74c-.28,0-.5-.22-.5-.5s.22-.5.5-.5h2.74c.28,0,.5.22.5.5s-.22.5-.5.5Z" style="fill:#fff;"/></g><g id="path11053"><path d="m12.24,5.5h-.99c-.28,0-.5-.22-.5-.5s.22-.5.5-.5h.99c.28,0,.5.22.5.5s-.22.5-.5.5Z" style="fill:#fff;"/></g></g></svg>