<?xml version="1.0" encoding="UTF-8"?><svg id="svg1839" xmlns="http://www.w3.org/2000/svg" xmlns:xlink="http://www.w3.org/1999/xlink" viewBox="0 0 682.67 682.67"><defs><clipPath id="clippath"><rect y="0" width="682.67" height="682.67" style="fill:none;"/></clipPath></defs><g id="g1845"><g id="g1847"><g style="clip-path:url(#clippath); fill:none;"><g id="g1849"><g id="g1855"><g id="path1857"><path d="m367.33,682.67H36.67C16.45,682.67,0,666.22,0,646s16.45-36.67,36.67-36.67h61.58c5.52,0,10,4.48,10,10s-4.48,10-10,10h-61.58c-9.19,0-16.67,7.48-16.67,16.67s7.48,16.67,16.67,16.67h330.67c9.19,0,16.67-7.48,16.67-16.67s-7.48-16.67-16.67-16.67h-215.77c-5.52,0-10-4.48-10-10s4.48-10,10-10h215.77c20.22,0,36.67,16.45,36.67,36.67s-16.45,36.67-36.67,36.67Z" style="fill:#fff;"/></g></g><g id="g1859"><g id="path1861"><path d="m327.46,629.33c-5.52,0-10-4.48-10-10s4.48-10,10-10c9.19,0,16.67-7.48,16.67-16.67s-7.48-16.67-16.67-16.67H76.54c-9.19,0-16.67,7.48-16.67,16.67s7.48,16.67,16.67,16.67c5.52,0,10,4.48,10,10s-4.48,10-10,10c-20.22,0-36.67-16.45-36.67-36.67s16.45-36.67,36.67-36.67h250.92c20.22,0,36.67,16.45,36.67,36.67s-16.45,36.67-36.67,36.67Z" style="fill:#fff;"/></g></g><g id="g1863"><g id="path1865"><path d="m639.89,502.79c-11.43,0-22.17-4.45-30.25-12.53l-184.17-184.17c-3.91-3.91-3.91-10.24,0-14.14,3.91-3.91,10.24-3.91,14.14,0l184.17,184.17c4.3,4.3,10.02,6.67,16.11,6.67s11.8-2.37,16.11-6.67c4.3-4.3,6.67-10.02,6.67-16.11s-2.37-11.8-6.67-16.11l-184.61-184.61c-3.91-3.9-3.91-10.24,0-14.14,3.91-3.9,10.24-3.9,14.14,0l184.61,184.61c8.08,8.08,12.53,18.82,12.53,30.25s-4.45,22.17-12.53,30.25c-8.08,8.08-18.82,12.53-30.25,12.53Z" style="fill:#fff;"/></g></g><g id="g1867"><g id="path1869"><path d="m239.52,236.5c-2.56,0-5.12-.98-7.07-2.93-3.9-3.91-3.9-10.24,0-14.14L399.31,52.57c3.91-3.91,10.24-3.91,14.14,0,3.91,3.91,3.91,10.24,0,14.14l-166.87,166.87c-1.95,1.95-4.51,2.93-7.07,2.93Z" style="fill:#fff;"/></g></g><g id="g1871"><g id="path1873"><path d="m337.09,334.08c-2.56,0-5.12-.98-7.07-2.93-3.91-3.91-3.91-10.24,0-14.14l166.87-166.87c3.91-3.9,10.24-3.9,14.14,0,3.91,3.91,3.91,10.24,0,14.14l-166.87,166.87c-1.95,1.95-4.51,2.93-7.07,2.93Z" style="fill:#fff;"/></g></g><g id="g1875"><g id="path1877"><path d="m328.9,383.7c-8.71,0-17.41-3.31-24.04-9.94l-115.02-115.02c-6.42-6.42-9.96-14.96-9.96-24.04s3.54-17.62,9.96-24.04c13.26-13.25,34.83-13.26,48.08,0l115.02,115.02c6.42,6.42,9.96,14.96,9.96,24.04s-3.54,17.62-9.96,24.04h0c-6.63,6.63-15.33,9.94-24.04,9.94Zm-115.02-162.99c-3.59,0-7.17,1.36-9.9,4.09s-4.1,6.16-4.1,9.9,1.46,7.25,4.1,9.9l115.02,115.02c5.46,5.46,14.34,5.46,19.8,0h0c2.64-2.64,4.1-6.16,4.1-9.9s-1.46-7.25-4.1-9.9l-115.02-115.02c-2.73-2.73-6.31-4.09-9.9-4.09Z" style="fill:#fff;"/></g></g><g id="g1879"><g id="path1881"><path d="m529.6,183.02c-9.08,0-17.62-3.54-24.04-9.96l-115.02-115.02c-13.26-13.26-13.26-34.83,0-48.08C396.96,3.54,405.5,0,414.58,0s17.62,3.54,24.04,9.96l10.78,10.78c3.91,3.91,3.91,10.24,0,14.14-3.91,3.91-10.24,3.91-14.14,0l-10.78-10.78c-2.64-2.64-6.16-4.1-9.9-4.1s-7.25,1.46-9.9,4.1c-5.46,5.46-5.46,14.34,0,19.8l115.02,115.02c2.64,2.65,6.16,4.1,9.9,4.1s7.25-1.46,9.9-4.1c5.46-5.46,5.46-14.34,0-19.8l-67.84-67.85c-3.91-3.91-3.91-10.24,0-14.14,3.91-3.9,10.24-3.9,14.14,0l67.84,67.85c6.42,6.42,9.96,14.96,9.96,24.04s-3.54,17.62-9.96,24.04c-6.42,6.42-14.96,9.96-24.04,9.96Z" style="fill:#fff;"/></g></g><g id="g1883"><g id="path1885"><path d="m406.32,317.59c-12.49,0-24.23-4.86-33.06-13.7l-7.95-7.95c-3.91-3.91-3.91-10.24,0-14.14l96.38-96.38c3.91-3.91,10.24-3.91,14.14,0l7.95,7.95c18.23,18.23,18.23,47.9,0,66.13l-44.39,44.39c-8.83,8.83-20.57,13.7-33.06,13.7Zm-19.8-28.71l.88.88c5.05,5.05,11.77,7.84,18.92,7.84s13.87-2.78,18.92-7.84l44.39-44.39c10.43-10.43,10.43-27.41,0-37.84l-.88-.88-82.24,82.24Z" style="fill:#fff;"/></g></g><g id="g1887"><g id="path1889"><path d="m134.97,516.76c-1.93,0-3.88-.56-5.59-1.72l-58-39.24c-4.57-3.09-5.77-9.31-2.68-13.89,3.09-4.57,9.31-5.77,13.89-2.68l58,39.24c4.57,3.09,5.77,9.31,2.68,13.89-1.93,2.86-5.08,4.4-8.29,4.4Z" style="fill:#fff;"/></g></g><g id="g1891"><g id="path1893"><path d="m271.75,516.76c-3.21,0-6.36-1.54-8.29-4.4-3.1-4.57-1.9-10.79,2.68-13.89l58-39.24c4.57-3.1,10.79-1.9,13.89,2.68,3.1,4.57,1.9,10.79-2.68,13.89l-58,39.24c-1.72,1.16-3.67,1.72-5.59,1.72Z" style="fill:#fff;"/></g></g><g id="g1895"><g id="path1897"><path d="m203.36,473.34c-5.52,0-10-4.48-10-10v-66.67c0-5.52,4.48-10,10-10s10,4.48,10,10v66.67c0,5.52-4.48,10-10,10Z" style="fill:#fff;"/></g></g></g></g></g></g></svg>